<svg xmlns="http://www.w3.org/2000/svg" viewBox="0 0 552.06 552.27"><defs><style>.cls-1{fill:#78cce2;}</style></defs><title>Asset 26</title><g id="Layer_2" data-name="Layer 2"><g id="Layer_1-2" data-name="Layer 1"><path class="cls-1" d="M392,84H.36V0H392Z"/><path class="cls-1" d="M509.88,84.35a42.18,42.18,0,1,1,42.18-42.18A42.22,42.22,0,0,1,509.88,84.35Z"/><path class="cls-1" d="M551.77,551.92H160.18V468H551.77Z"/><path class="cls-1" d="M42.17,552.27A42.18,42.18,0,1,1,84.35,510.1,42.22,42.22,0,0,1,42.17,552.27Z"/><path class="cls-1" d="M551.77,395.56H160.18v-84H551.77Z"/><path class="cls-1" d="M42.17,395.91a42.18,42.18,0,1,1,42.18-42.17A42.22,42.22,0,0,1,42.17,395.91Z"/><path class="cls-1" d="M391.59,239.2H0v-84H391.59Z"/><path class="cls-1" d="M509.6,239.55a42.18,42.18,0,1,1,42.17-42.17A42.22,42.22,0,0,1,509.6,239.55Z"/></g></g></svg>