<svg xmlns="http://www.w3.org/2000/svg" viewBox="0 0 552.06 552.27"><defs><style>.cls-1{fill:#78cce2;}</style></defs><title>Asset 18</title><g id="Layer_2" data-name="Layer 2"><g id="Layer_1-2" data-name="Layer 1"><path class="cls-1" d="M392,84H.36V0H392ZM27.58,56.78H364.73V27.24H27.58Z"/><path class="cls-1" d="M509.88,84.35a42.18,42.18,0,1,1,42.18-42.18A42.22,42.22,0,0,1,509.88,84.35Zm0-57.13a15,15,0,1,0,15,15A15,15,0,0,0,509.88,27.22Z"/><path class="cls-1" d="M551.77,551.92H160.18V468H551.77ZM187.4,524.7H524.55V495.16H187.4Z"/><path class="cls-1" d="M42.17,552.27A42.18,42.18,0,1,1,84.35,510.1,42.22,42.22,0,0,1,42.17,552.27Zm0-57.13a15,15,0,1,0,15,15A15,15,0,0,0,42.17,495.14Z"/><path class="cls-1" d="M551.77,395.56H160.18v-84H551.77ZM187.4,368.34H524.55V338.81H187.4Z"/><path class="cls-1" d="M42.17,395.91a42.18,42.18,0,1,1,42.18-42.17A42.22,42.22,0,0,1,42.17,395.91Zm0-57.13a15,15,0,1,0,15,15A15,15,0,0,0,42.17,338.78Z"/><path class="cls-1" d="M391.59,239.2H0v-84H391.59ZM27.22,212H364.37V182.44H27.22Z"/><path class="cls-1" d="M509.6,239.55a42.18,42.18,0,1,1,42.17-42.17A42.22,42.22,0,0,1,509.6,239.55Zm0-57.13a15,15,0,1,0,14.95,15A15,15,0,0,0,509.6,182.42Z"/></g></g></svg>