<?xml version="1.0" encoding="utf-8"?>
<svg viewBox="45.675 56.28 380.101 415.981" xmlns="http://www.w3.org/2000/svg">
  <path d="M 235.429 56.28 C 229.253 56.28 223.076 57.664 218.292 60.432 L 65.539 148.792 C 55.969 154.328 55.969 163.082 65.539 168.618 L 218.292 256.978 C 227.862 262.514 242.995 262.514 252.564 256.978 L 405.317 168.618 C 414.887 163.083 414.887 154.328 405.317 148.793 L 252.564 60.433 C 247.779 57.663 241.604 56.28 235.429 56.28 L 235.429 56.28 Z M 237.289 68.703 C 245.271 68.911 252.833 70.886 258.483 74.239 C 275.714 84.655 267.481 102.233 243.664 105.879 C 232.814 107.541 221.292 105.708 213.296 101.051 C 195.905 90.729 203.866 73.107 227.627 69.331 C 230.774 68.831 234.032 68.62 237.288 68.704 L 237.289 68.703 Z M 118.116 138.891 C 118.116 138.891 118.118 138.891 118.118 138.891 C 126.101 139.099 133.663 141.073 139.313 144.426 C 156.705 154.747 148.747 172.369 124.987 176.147 C 113.96 177.9 102.195 176.029 94.123 171.239 C 76.731 160.918 84.69 143.296 108.449 139.519 C 111.598 139.018 114.858 138.806 118.115 138.891 L 118.116 138.891 Z M 356.019 139.151 C 356.019 139.151 356.021 139.151 356.021 139.151 C 364.004 139.359 371.566 141.333 377.216 144.686 C 394.531 155.052 386.441 172.654 362.654 176.369 C 351.711 178.077 340.062 176.225 332.026 171.498 C 314.635 161.176 322.596 143.554 346.356 139.778 C 349.504 139.278 352.763 139.066 356.019 139.151 L 356.019 139.151 Z M 55.339 185.356 C 49.586 185.201 45.675 189.692 45.675 197.636 L 45.675 355.332 C 45.675 366.384 53.245 379.495 62.815 385.022 L 209.745 469.87 C 219.315 475.396 226.885 471.026 226.885 459.975 L 226.885 302.276 C 226.885 291.224 219.315 278.116 209.745 272.588 L 62.815 187.741 C 60.125 186.186 57.59 185.414 55.339 185.354 L 55.339 185.356 Z M 416.112 185.358 C 413.862 185.418 411.329 186.188 408.638 187.743 L 261.703 272.59 C 252.133 278.117 244.563 291.228 244.563 302.28 L 244.563 459.98 C 244.563 471.03 252.133 475.398 261.703 469.87 L 408.639 385.026 C 418.209 379.499 425.776 366.39 425.776 355.338 L 425.776 197.638 C 425.776 189.696 421.866 185.206 416.112 185.36 L 416.112 185.358 Z M 68.966 207.286 C 83.935 206.248 102.723 229.049 102.784 248.329 C 102.784 248.376 102.784 248.422 102.784 248.469 C 102.804 267.726 84.067 268.961 69.057 250.692 C 62.074 242.194 57.774 231.436 57.784 222.489 C 57.767 213.56 62.028 207.767 68.966 207.286 Z M 402.486 207.286 C 409.424 207.767 413.685 213.56 413.669 222.489 C 413.648 241.746 394.886 264.581 379.896 263.593 C 372.956 263.136 368.678 257.374 368.669 248.469 C 368.632 229.245 387.36 206.362 402.378 207.279 C 402.414 207.281 402.451 207.283 402.487 207.286 L 402.486 207.286 Z M 237.288 209.6 C 245.27 209.808 252.832 211.782 258.482 215.135 C 275.713 225.551 267.48 243.129 243.663 246.775 C 232.813 248.437 221.291 246.604 213.295 241.947 C 195.903 231.626 203.862 214.004 227.621 210.227 C 230.77 209.726 234.03 209.514 237.287 209.599 L 237.288 209.6 Z M 68.965 268.286 C 83.934 267.248 102.722 290.049 102.783 309.329 C 102.783 309.376 102.783 309.422 102.783 309.469 C 102.803 328.726 84.066 329.961 69.056 311.692 C 62.073 303.194 57.773 292.436 57.783 283.489 C 57.766 274.561 62.027 268.768 68.965 268.287 L 68.965 268.286 Z M 180.965 271.95 C 195.934 270.912 214.722 293.713 214.783 312.993 C 214.783 313.04 214.783 313.086 214.783 313.133 C 214.803 332.39 196.066 333.625 181.056 315.356 C 174.073 306.858 169.773 296.1 169.783 287.153 C 169.766 278.224 174.027 272.431 180.965 271.95 L 180.965 271.95 Z M 290.485 271.95 C 297.423 272.43 301.685 278.224 301.669 287.153 C 301.648 306.41 282.886 329.245 267.896 328.257 C 260.956 327.8 256.678 322.038 256.669 313.133 C 256.632 293.909 275.36 271.026 290.378 271.943 C 290.414 271.945 290.451 271.947 290.487 271.95 L 290.485 271.95 Z M 346.489 300.616 C 346.489 300.616 346.49 300.616 346.491 300.616 C 353.427 301.098 357.687 306.891 357.671 315.819 C 357.65 335.076 338.888 357.911 323.898 356.923 C 316.958 356.466 312.68 350.704 312.671 341.799 C 312.634 322.575 331.362 299.692 346.38 300.609 C 346.416 300.611 346.453 300.613 346.489 300.616 Z M 68.966 329.996 C 83.935 328.958 102.723 351.759 102.784 371.039 C 102.784 371.086 102.784 371.133 102.784 371.18 C 102.804 390.437 84.067 391.672 69.057 373.403 C 62.074 364.905 57.774 354.147 57.784 345.2 C 57.767 336.271 62.028 330.477 68.966 329.996 L 68.966 329.996 Z M 402.486 329.996 C 409.424 330.477 413.686 336.27 413.669 345.2 C 413.648 364.457 394.886 387.292 379.896 386.304 C 372.956 385.847 368.678 380.085 368.669 371.18 C 368.632 351.956 387.358 329.073 402.377 329.989 C 402.414 329.991 402.45 329.993 402.487 329.996 L 402.486 329.996 Z M 180.966 332.95 C 195.935 331.912 214.723 354.713 214.784 373.993 C 214.784 374.04 214.784 374.086 214.784 374.133 C 214.804 393.39 196.067 394.625 181.057 376.356 C 174.074 367.858 169.774 357.1 169.784 348.153 C 169.767 339.224 174.028 333.431 180.966 332.95 Z M 180.966 394.66 C 195.935 393.622 214.723 416.423 214.784 435.703 C 214.784 435.749 214.784 435.796 214.784 435.842 C 214.804 455.099 196.067 456.334 181.057 438.065 C 174.074 429.567 169.774 418.809 169.784 409.862 C 169.767 400.933 174.028 395.14 180.966 394.659 L 180.966 394.66 Z M 290.486 394.66 C 297.423 395.141 301.685 400.933 301.669 409.861 C 301.648 429.118 282.886 451.953 267.896 450.965 C 260.956 450.508 256.678 444.746 256.669 435.841 C 256.632 416.617 275.36 393.734 290.378 394.651 C 290.414 394.653 290.451 394.655 290.487 394.658 L 290.486 394.66 Z" fill-opacity="1" style="fill: rgb(19, 181, 67);"/>
</svg>